<?xml version="1.0" encoding="UTF-8" standalone="no"?>
<!-- Created with Inkscape (http://www.inkscape.org/) -->

<svg
   width="64"
   height="64"
   viewBox="0 0 16.933333 16.933333"
   version="1.1"
   id="svg963"
   inkscape:version="1.1 (c4e8f9ed74, 2021-05-24)"
   sodipodi:docname="icon-grid.svg"
   xmlns:inkscape="http://www.inkscape.org/namespaces/inkscape"
   xmlns:sodipodi="http://sodipodi.sourceforge.net/DTD/sodipodi-0.dtd"
   xmlns="http://www.w3.org/2000/svg"
   xmlns:svg="http://www.w3.org/2000/svg">
  <sodipodi:namedview
     id="namedview965"
     pagecolor="#ffffff"
     bordercolor="#666666"
     borderopacity="1.0"
     inkscape:pageshadow="2"
     inkscape:pageopacity="0.0"
     inkscape:pagecheckerboard="0"
     inkscape:document-units="px"
     showgrid="false"
     inkscape:zoom="2.5906004"
     inkscape:cx="31.266883"
     inkscape:cy="45.163276"
     inkscape:window-width="637"
     inkscape:window-height="999"
     inkscape:window-x="2561"
     inkscape:window-y="79"
     inkscape:window-maximized="1"
     inkscape:current-layer="layer1"
     units="px" />
  <defs
     id="defs960" />
  <g
     inkscape:label="Ebene 1"
     inkscape:groupmode="layer"
     id="layer1">
    <path
       style="color:#000000;fill:#3771c8;fill-opacity:1;-inkscape-stroke:none"
       d="m 3.9498698,2.1173165 v 1.833985 h -1.833984 v 0.564453 h 1.833984 v 3.667969 h -1.833984 v 0.566406 h 1.833984 v 3.6679685 h -1.833984 v 0.564453 h 1.833984 v 1.833984 h 0.566406 v -1.833984 h 3.667969 v 1.833984 h 0.564453 v -1.833984 h 3.6679692 v 1.833984 h 0.56641 v -1.833984 h 1.83398 v -0.564453 h -1.83398 V 8.7501295 h 1.83398 v -0.566406 h -1.83398 v -3.667969 h 1.83398 v -0.564453 h -1.83398 v -1.833985 h -0.56641 v 1.833985 H 8.7486978 v -1.833985 h -0.564453 v 1.833985 h -3.667969 v -1.833985 z m 0.566406,2.398438 h 3.667969 v 3.667969 h -3.667969 z m 4.232422,0 h 3.6679692 v 3.667969 H 8.7486978 Z m -4.232422,4.234375 h 3.667969 v 3.6679685 h -3.667969 z m 4.232422,0 H 12.416667 V 12.418098 H 8.7486978 Z"
       id="path42124" />
  </g>
</svg>
