<?xml version="1.0" encoding="UTF-8" standalone="no"?>
<!-- Created with Inkscape (http://www.inkscape.org/) -->

<svg
   width="64mm"
   height="64mm"
   viewBox="0 0 64 64"
   version="1.1"
   id="svg12427"
   inkscape:version="1.1 (c4e8f9ed74, 2021-05-24)"
   sodipodi:docname="icon-AI.svg"
   xmlns:inkscape="http://www.inkscape.org/namespaces/inkscape"
   xmlns:sodipodi="http://sodipodi.sourceforge.net/DTD/sodipodi-0.dtd"
   xmlns="http://www.w3.org/2000/svg"
   xmlns:svg="http://www.w3.org/2000/svg">
  <sodipodi:namedview
     id="namedview12429"
     pagecolor="#ffffff"
     bordercolor="#666666"
     borderopacity="1.0"
     inkscape:pageshadow="2"
     inkscape:pageopacity="0.0"
     inkscape:pagecheckerboard="0"
     inkscape:document-units="mm"
     showgrid="false"
     width="64mm"
     inkscape:zoom="2.5906004"
     inkscape:cx="188.18031"
     inkscape:cy="122.36545"
     inkscape:window-width="1920"
     inkscape:window-height="1059"
     inkscape:window-x="0"
     inkscape:window-y="21"
     inkscape:window-maximized="1"
     inkscape:current-layer="layer1" />
  <defs
     id="defs12424" />
  <g
     inkscape:label="Ebene 1"
     inkscape:groupmode="layer"
     id="layer1">
    <g
       transform="matrix(3.7484026,0,0,3.7484026,200.29693,2915.9543)"
       id="g991">
      <g
         id="g913"
         transform="rotate(-90,-44.428629,-769.31915)"
         style="stroke:#216778">
        <g
           id="path892">
          <path
             style="color:#000000;fill:#000000;stroke:none;stroke-width:0.5;-inkscape-stroke:none"
             d="m -42.323126,-773.78291 -0.01481,-1.9185"
             id="path509" />
          <path
             id="path511"
             style="color:#000000;fill:#202020;stroke:none;stroke-width:14.1672;-inkscape-stroke:none"
             d="M 85.746094 31.394531 L 78.662109 31.451172 L 78.876953 57.626953 L 63.964844 57.626953 L 63.964844 73.460938 L 37.15625 73.679688 L 37.212891 80.763672 L 63.964844 80.544922 L 63.964844 88.458984 L 37.15625 88.675781 L 37.212891 95.759766 L 63.964844 95.542969 L 63.964844 103.48242 L 37.15625 103.67383 L 37.212891 110.75781 L 63.964844 110.56836 L 63.964844 118.48047 L 37.15625 118.67188 L 37.212891 125.75391 L 63.964844 125.56445 L 63.964844 133.47852 L 37.15625 133.69531 L 37.212891 140.7793 L 63.964844 140.5625 L 63.964844 148.47656 L 37.15625 148.69336 L 37.212891 155.77734 L 63.964844 155.56055 L 63.964844 163.47266 L 37.15625 163.69141 L 37.212891 170.77539 L 63.964844 170.55664 L 63.964844 185.13086 L 77.615234 185.13086 L 77.832031 211.83789 L 84.916016 211.78125 L 84.699219 185.13086 L 92.613281 185.13086 L 92.830078 211.83789 L 99.914062 211.78125 L 99.695312 185.13086 L 107.60938 185.13086 L 107.82812 211.83789 L 114.91016 211.78125 L 114.69336 185.13086 L 122.63477 185.13086 L 122.82422 211.83789 L 129.9082 211.78125 L 129.71875 185.13086 L 137.63281 185.13086 L 137.82227 211.83789 L 144.90625 211.78125 L 144.71484 185.13086 L 152.62891 185.13086 L 152.84766 211.83789 L 159.92969 211.78125 L 159.71289 185.13086 L 167.62695 185.13086 L 167.84375 211.83789 L 174.92773 211.78125 L 174.71094 185.13086 L 191.4707 185.13086 L 191.4707 170.76562 L 217.53516 170.55469 L 217.47852 163.4707 L 191.4707 163.68164 L 191.4707 155.76758 L 217.53516 155.55664 L 217.47852 148.47266 L 191.4707 148.68555 L 191.4707 140.77148 L 217.53516 140.55859 L 217.47852 133.47656 L 191.4707 133.6875 L 191.4707 125.74805 L 217.53516 125.5625 L 217.47852 118.47852 L 191.4707 118.66406 L 191.4707 110.75 L 217.53516 110.56445 L 217.47852 103.48047 L 191.4707 103.66797 L 191.4707 95.751953 L 217.53516 95.539062 L 217.47852 88.457031 L 191.4707 88.667969 L 191.4707 80.753906 L 217.53516 80.542969 L 217.47852 73.458984 L 191.4707 73.669922 L 191.4707 57.626953 L 175.9707 57.626953 L 175.75781 31.394531 L 168.67383 31.451172 L 168.88867 57.626953 L 160.97461 57.626953 L 160.75977 31.394531 L 153.67773 31.451172 L 153.89062 57.626953 L 145.95117 57.626953 L 145.76367 31.394531 L 138.67969 31.451172 L 138.86523 57.626953 L 130.95312 57.626953 L 130.76562 31.394531 L 123.68164 31.451172 L 123.86914 57.626953 L 115.95508 57.626953 L 115.74023 31.394531 L 108.6582 31.451172 L 108.87109 57.626953 L 100.95703 57.626953 L 100.74414 31.394531 L 93.660156 31.451172 L 93.873047 57.626953 L 85.960938 57.626953 L 85.746094 31.394531 z M 105.9082 95.777344 L 114.21484 95.777344 L 129.70508 146.38867 L 122.62109 146.38867 L 118.89258 133.20312 L 101.16406 133.20312 L 97.501953 146.38867 L 90.417969 146.38867 L 105.9082 95.777344 z M 137.77344 95.777344 L 165.875 95.777344 L 165.875 101.54102 L 155.26562 101.54102 L 155.26562 140.62695 L 165.875 140.62695 L 165.875 146.38867 L 137.77344 146.38867 L 137.77344 140.62695 L 148.38477 140.62695 L 148.38477 101.54102 L 137.77344 101.54102 L 137.77344 95.777344 z M 110.04492 101.8125 L 102.82422 127.71094 L 117.26562 127.71094 L 110.04492 101.8125 z "
             transform="matrix(0,0.07058562,-0.07058562,0,-35.828593,-778.3258)" />
        </g>
        <g
           id="path894">
          <path
             style="color:#000000;fill:#000000;stroke:none;stroke-width:0.5;-inkscape-stroke:none"
             d="m -43.382102,-773.78291 -0.01481,-1.9185"
             id="path517" />
        </g>
        <g
           id="path896">
          <path
             style="color:#000000;fill:#000000;stroke:none;stroke-width:0.5;-inkscape-stroke:none"
             d="m -44.441078,-773.78291 -0.01481,-1.9185"
             id="path525" />
        </g>
        <g
           id="path898">
          <path
             style="color:#000000;fill:#000000;stroke:none;stroke-width:0.5;-inkscape-stroke:none"
             d="m -45.500053,-773.78291 -0.01481,-1.9185"
             id="path533" />
        </g>
        <g
           id="path900">
          <path
             style="color:#000000;fill:#000000;stroke:none;stroke-width:0.5;-inkscape-stroke:none"
             d="m -46.559029,-773.78291 -0.01481,-1.9185"
             id="path541" />
        </g>
        <g
           id="path902">
          <path
             style="color:#000000;fill:#000000;stroke:none;stroke-width:0.5;-inkscape-stroke:none"
             d="m -47.618004,-773.78291 -0.01481,-1.9185"
             id="path549" />
        </g>
        <g
           id="path904">
          <path
             style="color:#000000;fill:#000000;stroke:none;stroke-width:0.5;-inkscape-stroke:none"
             d="m -41.264151,-773.78291 -0.01481,-1.9185"
             id="path557" />
        </g>
      </g>
      <g
         id="g938"
         style="stroke:#216778">
        <g
           id="path945">
          <path
             style="color:#000000;fill:#000000;stroke:none;stroke-width:0.5;-inkscape-stroke:none"
             d="m -42.323126,-773.78291 -0.01481,-1.9185"
             id="path571" />
        </g>
        <g
           id="path947">
          <path
             style="color:#000000;fill:#000000;stroke:none;stroke-width:0.5;-inkscape-stroke:none"
             d="m -43.382102,-773.78291 -0.01481,-1.9185"
             id="path579" />
        </g>
        <g
           id="path949">
          <path
             style="color:#000000;fill:#000000;stroke:none;stroke-width:0.5;-inkscape-stroke:none"
             d="m -44.441078,-773.78291 -0.01481,-1.9185"
             id="path587" />
        </g>
        <g
           id="path951">
          <path
             style="color:#000000;fill:#000000;stroke:none;stroke-width:0.5;-inkscape-stroke:none"
             d="m -45.500053,-773.78291 -0.01481,-1.9185"
             id="path595" />
        </g>
        <g
           id="path953">
          <path
             style="color:#000000;fill:#000000;stroke:none;stroke-width:0.5;-inkscape-stroke:none"
             d="m -46.559029,-773.78291 -0.01481,-1.9185"
             id="path603" />
        </g>
        <g
           id="path955">
          <path
             style="color:#000000;fill:#000000;stroke:none;stroke-width:0.5;-inkscape-stroke:none"
             d="m -47.618004,-773.78291 -0.01481,-1.9185"
             id="path611" />
        </g>
        <g
           id="path959">
          <path
             style="color:#000000;fill:#000000;stroke:none;stroke-width:0.5;-inkscape-stroke:none"
             d="m -41.264151,-773.78291 -0.01481,-1.9185"
             id="path619" />
        </g>
      </g>
      <g
         transform="rotate(-90,-39.023499,-774.72422)"
         id="g929"
         style="stroke:#216778">
        <g
           id="path915">
          <path
             style="color:#000000;fill:#000000;stroke:none;stroke-width:0.5;-inkscape-stroke:none"
             d="m -42.323126,-773.78291 -0.01481,-1.9185"
             id="path627" />
        </g>
        <g
           id="path917">
          <path
             style="color:#000000;fill:#000000;stroke:none;stroke-width:0.5;-inkscape-stroke:none"
             d="m -43.382102,-773.78291 -0.01481,-1.9185"
             id="path635" />
        </g>
        <g
           id="path919">
          <path
             style="color:#000000;fill:#000000;stroke:none;stroke-width:0.5;-inkscape-stroke:none"
             d="m -44.441078,-773.78291 -0.01481,-1.9185"
             id="path643" />
        </g>
        <g
           id="path921">
          <path
             style="color:#000000;fill:#000000;stroke:none;stroke-width:0.5;-inkscape-stroke:none"
             d="m -45.500053,-773.78291 -0.01481,-1.9185"
             id="path651" />
        </g>
        <g
           id="path923">
          <path
             style="color:#000000;fill:#000000;stroke:none;stroke-width:0.5;-inkscape-stroke:none"
             d="m -46.559029,-773.78291 -0.01481,-1.9185"
             id="path659" />
        </g>
        <g
           id="path925">
          <path
             style="color:#000000;fill:#000000;stroke:none;stroke-width:0.5;-inkscape-stroke:none"
             d="m -47.618004,-773.78291 -0.01481,-1.9185"
             id="path667" />
        </g>
        <g
           id="path927">
          <path
             style="color:#000000;fill:#000000;stroke:none;stroke-width:0.5;-inkscape-stroke:none"
             d="m -41.264151,-773.78291 -0.01481,-1.9185"
             id="path675" />
        </g>
      </g>
      <g
         id="g954"
         transform="translate(-0.07421855,10.814733)"
         style="stroke:#216778">
        <g
           id="path940">
          <path
             style="color:#000000;fill:#000000;stroke:none;stroke-width:0.5;-inkscape-stroke:none"
             d="m -42.323126,-773.78291 -0.01481,-1.9185"
             id="path683" />
        </g>
        <g
           id="path942">
          <path
             style="color:#000000;fill:#000000;stroke:none;stroke-width:0.5;-inkscape-stroke:none"
             d="m -43.382102,-773.78291 -0.01481,-1.9185"
             id="path691" />
        </g>
        <g
           id="path944">
          <path
             style="color:#000000;fill:#000000;stroke:none;stroke-width:0.5;-inkscape-stroke:none"
             d="m -44.441078,-773.78291 -0.01481,-1.9185"
             id="path699" />
        </g>
        <g
           id="path946">
          <path
             style="color:#000000;fill:#000000;stroke:none;stroke-width:0.5;-inkscape-stroke:none"
             d="m -45.500053,-773.78291 -0.01481,-1.9185"
             id="path707" />
        </g>
        <g
           id="path948">
          <path
             style="color:#000000;fill:#000000;stroke:none;stroke-width:0.5;-inkscape-stroke:none"
             d="m -46.559029,-773.78291 -0.01481,-1.9185"
             id="path715" />
        </g>
        <g
           id="path950">
          <path
             style="color:#000000;fill:#000000;stroke:none;stroke-width:0.5;-inkscape-stroke:none"
             d="m -47.618004,-773.78291 -0.01481,-1.9185"
             id="path723" />
        </g>
        <g
           id="path952">
          <path
             style="color:#000000;fill:#000000;stroke:none;stroke-width:0.5;-inkscape-stroke:none"
             d="m -41.264151,-773.78291 -0.01481,-1.9185"
             id="path731" />
        </g>
      </g>
    </g>
  </g>
</svg>
