<?xml version="1.0" encoding="UTF-8" standalone="no"?>
<!-- Created with Inkscape (http://www.inkscape.org/) -->

<svg
   width="64"
   height="64"
   viewBox="0 0 16.933333 16.933333"
   version="1.1"
   id="svg963"
   inkscape:version="1.1 (c4e8f9ed74, 2021-05-24)"
   sodipodi:docname="tool-bezier.svg"
   xmlns:inkscape="http://www.inkscape.org/namespaces/inkscape"
   xmlns:sodipodi="http://sodipodi.sourceforge.net/DTD/sodipodi-0.dtd"
   xmlns="http://www.w3.org/2000/svg"
   xmlns:svg="http://www.w3.org/2000/svg">
  <sodipodi:namedview
     id="namedview965"
     pagecolor="#a1a1a1"
     bordercolor="#666666"
     borderopacity="1.0"
     inkscape:pageshadow="2"
     inkscape:pageopacity="0"
     inkscape:pagecheckerboard="true"
     inkscape:document-units="px"
     showgrid="false"
     inkscape:zoom="5.1812008"
     inkscape:cx="33.003932"
     inkscape:cy="53.366007"
     inkscape:window-width="1547"
     inkscape:window-height="928"
     inkscape:window-x="140"
     inkscape:window-y="46"
     inkscape:window-maximized="1"
     inkscape:current-layer="layer1"
     units="px"
     inkscape:snap-global="false" />
  <defs
     id="defs960" />
  <g
     inkscape:label="Ebene 1"
     inkscape:groupmode="layer"
     id="layer1">
    <path
       style="color:#000000;#202020;-inkscape-stroke:none"
       d="M 11.808594,3.4921875 C 9.7786274,3.3143484 7.8381069,4.0611266 6.3027344,5.4941406 4.255571,7.4048261 2.9101563,10.51995 2.9101563,14.287109 h 0.5292968 c 0,-3.641167 1.3010737,-6.6108198 3.2226563,-8.4042965 C 8.5836919,4.0893358 11.106095,3.4568914 13.660156,4.4785156 l 0.197266,-0.4902343 c -0.6844,-0.27376 -1.372173,-0.4368141 -2.048828,-0.4960938 z"
       id="path6496" />
    <path
       style="color:#000000;#202020;stroke-dasharray:0.529167, 0.529167;-inkscape-stroke:none"
       d="m 2.9101563,7.4082031 v 0.265625 h 0.5292968 v -0.265625 z m 0,0.7929688 V 8.7304688 H 3.4394531 V 8.2011719 Z m 0,1.0585937 V 9.7890625 H 3.4394531 V 9.2597656 Z m 0,1.0585934 v 0.529297 h 0.5292968 v -0.529297 z m 0,1.058594 v 0.529297 h 0.5292968 v -0.529297 z m 0,1.058594 v 0.529297 h 0.5292968 v -0.529297 z m 0,1.058594 v 0.529297 h 0.5292968 v -0.529297 z"
       id="path6588" />
    <path
       style="color:#000000;#202020;stroke-dasharray:0.529167, 0.529167;-inkscape-stroke:none"
       d="M 8.5644531,1.8710937 8.3691406,2.3632813 8.7460938,2.5136719 8.9433594,2.0214844 Z M 9.4355469,2.21875 9.2382813,2.7109375 9.7304688,2.90625 9.9257813,2.4160156 Z m 0.9824221,0.3925781 -0.197266,0.4921875 0.492188,0.1972657 0.195312,-0.4921875 z m 0.982422,0.3945313 -0.197266,0.4902344 0.492188,0.1972656 0.195312,-0.4921875 z m 0.982422,0.3925781 -0.197266,0.4902344 0.492187,0.1972656 0.195313,-0.4921875 z m 0.982421,0.3925781 -0.197265,0.4921875 0.492187,0.1953125 0.197266,-0.4902343 z"
       id="path6590" />
    <path
       style="color:#000000;#202020;stroke-width:1.33301;stroke-linejoin:bevel;-inkscape-stroke:none;paint-order:markers fill stroke"
       d="m 3.1743841,5.487441 c -0.5801796,0 -1.0570316,0.476852 -1.0570316,1.0570314 0,0.5801796 0.476852,1.0570316 1.0570316,1.0570316 0.5801794,0 1.059635,-0.476852 1.059635,-1.0570316 0,-0.5801794 -0.4794556,-1.0570314 -1.059635,-1.0570314 z m 0,0.7055555 c 0.198963,0 0.3540795,0.152513 0.3540795,0.3514759 0,0.1989631 -0.1551165,0.3514761 -0.3540795,0.3514761 -0.1989631,0 -0.3514761,-0.152513 -0.3514761,-0.3514761 0,-0.1989629 0.152513,-0.3514759 0.3514761,-0.3514759 z"
       id="path6694" />
    <path
       style="color:#000000;#202020;stroke-width:1.33301;stroke-linejoin:bevel;-inkscape-stroke:none;paint-order:markers fill stroke"
       d="m 3.3838538,13.929688 c -0.5801795,0 -1.059635,0.476851 -1.059635,1.057031 0,0.580179 0.4794555,1.059635 1.059635,1.059635 0.5801796,0 1.0570316,-0.479456 1.0570316,-1.059635 0,-0.58018 -0.476852,-1.057032 -1.0570316,-1.057031 z m 0,0.705554 c 0.198963,0 0.351476,0.152514 0.351476,0.351477 0,0.198963 -0.152513,0.354079 -0.351476,0.354079 -0.198963,0 -0.3540795,-0.155116 -0.3540795,-0.354079 0,-0.198963 0.1551165,-0.351477 0.3540795,-0.351477 z"
       id="circle6820" />
    <path
       style="color:#000000;#202020;stroke-width:1.33301;stroke-linejoin:bevel;-inkscape-stroke:none;paint-order:markers fill stroke"
       d="m 14.568751,3.7265625 c -0.58018,0 -1.057032,0.4768522 -1.057032,1.0570319 0,0.5801799 0.476852,1.0596355 1.057032,1.0596355 0.580179,0 1.059635,-0.4794556 1.059635,-1.0596355 0,-0.5801797 -0.479456,-1.0570319 -1.059635,-1.0570319 z m 0,0.7055559 c 0.198962,0 0.354079,0.152513 0.35408,0.351476 0,0.1989631 -0.155118,0.3540798 -0.35408,0.3540797 -0.198963,0 -0.351476,-0.1551166 -0.351476,-0.3540797 0,-0.198963 0.152513,-0.351476 0.351476,-0.351476 z"
       id="circle6822" />
    <path
       style="color:#000000;#202020;stroke-width:1.33296;stroke-linejoin:bevel;-inkscape-stroke:none;paint-order:markers fill stroke"
       d="m 7.8727023,0.76913318 c -0.5801793,0 -1.0596348,0.47945572 -1.0596348,1.05963482 0,0.5801801 0.4794555,1.0570318 1.0596348,1.0570318 0.5801801,0 1.0570318,-0.4768517 1.0570318,-1.0570318 0,-0.5801791 -0.4768517,-1.05963472 -1.0570318,-1.05963482 z m 0,0.70555522 c 0.1989636,0 0.3514765,0.1551168 0.3514765,0.3540796 0,0.1989636 -0.1525129,0.3514765 -0.3514765,0.3514765 -0.1989628,0 -0.3540796,-0.1525129 -0.3540796,-0.3514765 0,-0.1989628 0.1551168,-0.3540796 0.3540796,-0.3540796 z"
       id="circle6824" />
  </g>
</svg>
