<?xml version="1.0" encoding="UTF-8" standalone="no"?>
<!-- Created with Inkscape (http://www.inkscape.org/) -->

<svg
   width="64"
   height="64"
   viewBox="0 0 16.933333 16.933334"
   version="1.1"
   id="svg5"
   inkscape:version="1.1 (c4e8f9ed74, 2021-05-24)"
   sodipodi:docname="organ-kidney.svg"
   xmlns:inkscape="http://www.inkscape.org/namespaces/inkscape"
   xmlns:sodipodi="http://sodipodi.sourceforge.net/DTD/sodipodi-0.dtd"
   xmlns="http://www.w3.org/2000/svg"
   xmlns:svg="http://www.w3.org/2000/svg">
  <sodipodi:namedview
     id="namedview7"
     pagecolor="#ffffff"
     bordercolor="#666666"
     borderopacity="1.0"
     inkscape:pageshadow="2"
     inkscape:pageopacity="0.0"
     inkscape:pagecheckerboard="0"
     inkscape:document-units="mm"
     showgrid="true"
     units="px"
     width="64px"
     inkscape:zoom="7.3273246"
     inkscape:cx="70.899002"
     inkscape:cy="25.520911"
     inkscape:window-width="1920"
     inkscape:window-height="1059"
     inkscape:window-x="0"
     inkscape:window-y="21"
     inkscape:window-maximized="1"
     inkscape:current-layer="layer1">
    <inkscape:grid
       type="xygrid"
       id="grid29" />
  </sodipodi:namedview>
  <defs
     id="defs2" />
  <g
     inkscape:label="Ebene 1"
     inkscape:groupmode="layer"
     id="layer1">
    <path
       style="color:#000000;fill:#87aade;-inkscape-stroke:none;fill-opacity:1"
       d="M 13.029297,7.0703125 C 12.66115,7.3748844 12.283605,7.436218 11.787109,7.421875 11.290614,7.407532 10.697604,7.3011853 10.009766,7.2949219 l -0.0059,0.5703125 c 0.629649,0.00573 1.206971,0.110758 1.767578,0.1269531 0.560608,0.016195 1.125962,-0.072794 1.621094,-0.4824219 z"
       id="path851" />
    <path
       style="color:#000000;fill:#87aade;-inkscape-stroke:none;fill-opacity:1"
       d="M 12.962891,7.1484375 C 12.343621,8.242534 11.147313,9.266845 9.9296875,9.6269531 l 0.1621095,0.5468749 c 1.396398,-0.4129793 2.670494,-1.5132549 3.367187,-2.7441405 z"
       id="path1057" />
    <path
       style="color:#000000;fill:#87aade;-inkscape-stroke:none;fill-opacity:1"
       d="M 12.953125,7.1679687 C 12.336181,8.486907 12.17413,10.560189 10.386719,11.380859 L 10.625,11.900391 c 2.103345,-0.965728 2.319939,-3.3704006 2.84375,-4.4902348 z"
       id="path1149" />
    <path
       style="color:#000000;fill:#87aade;-inkscape-stroke:none;fill-opacity:1"
       d="M 14.248047,5.921875 13.015625,7.0820312 13.40625,7.4980469 14.638672,6.3378906 Z"
       id="path1241" />
    <path
       id="path53"
       style="fill:#fc4c4c;stroke:none;stroke-width:0.564999;stroke-linejoin:bevel;fill-opacity:1"
       d="M 10.910395,8.5258163 C 10.054167,11.377083 13.758333,15.08125 8.5576873,15.213642 6.0013219,15.278719 3.9687495,11.886778 3.9687495,8.598958 c 0,-3.2878202 2.073015,-5.9531252 4.6302085,-5.953125 4.101042,3e-7 3.468419,2.0271953 2.311437,5.8799833 z"
       sodipodi:nodetypes="sssss" />
  </g>
</svg>
