<?xml version="1.0" encoding="UTF-8" standalone="no"?>
<!-- Created with Inkscape (http://www.inkscape.org/) -->

<svg
   width="64"
   height="64"
   viewBox="0 0 16.933333 16.933333"
   version="1.1"
   id="svg963"
   inkscape:version="1.1 (c4e8f9ed74, 2021-05-24)"
   sodipodi:docname="tool-bezier.svg"
   xmlns:inkscape="http://www.inkscape.org/namespaces/inkscape"
   xmlns:sodipodi="http://sodipodi.sourceforge.net/DTD/sodipodi-0.dtd"
   xmlns="http://www.w3.org/2000/svg"
   xmlns:svg="http://www.w3.org/2000/svg">
  <sodipodi:namedview
     id="namedview965"
     pagecolor="#ffffff"
     bordercolor="#666666"
     borderopacity="1.0"
     inkscape:pageshadow="2"
     inkscape:pageopacity="0.0"
     inkscape:pagecheckerboard="0"
     inkscape:document-units="px"
     showgrid="false"
     inkscape:zoom="1.2953002"
     inkscape:cx="174.86294"
     inkscape:cy="154.01835"
     inkscape:window-width="1547"
     inkscape:window-height="928"
     inkscape:window-x="187"
     inkscape:window-y="86"
     inkscape:window-maximized="1"
     inkscape:current-layer="layer1"
     units="px" />
  <defs
     id="defs960" />
  <g
     inkscape:label="Ebene 1"
     inkscape:groupmode="layer"
     id="layer1">
    <path
       style="color:#000000;fill:#ffffff;-inkscape-stroke:none"
       d="M 11.808594,3.4921875 C 9.7786274,3.3143484 7.8381069,4.0611266 6.3027344,5.4941406 4.255571,7.4048261 2.9101563,10.51995 2.9101563,14.287109 h 0.5292968 c 0,-3.641167 1.3010737,-6.6108198 3.2226563,-8.4042965 C 8.5836919,4.0893358 11.106095,3.4568914 13.660156,4.4785156 l 0.197266,-0.4902343 c -0.6844,-0.27376 -1.372173,-0.4368141 -2.048828,-0.4960938 z"
       id="path6496" />
    <path
       style="color:#000000;fill:#ffffff;stroke-dasharray:0.529167, 0.529167;-inkscape-stroke:none"
       d="m 2.9101563,7.4082031 v 0.265625 h 0.5292968 v -0.265625 z m 0,0.7929688 V 8.7304688 H 3.4394531 V 8.2011719 Z m 0,1.0585937 V 9.7890625 H 3.4394531 V 9.2597656 Z m 0,1.0585934 v 0.529297 h 0.5292968 v -0.529297 z m 0,1.058594 v 0.529297 h 0.5292968 v -0.529297 z m 0,1.058594 v 0.529297 h 0.5292968 v -0.529297 z m 0,1.058594 v 0.529297 h 0.5292968 v -0.529297 z"
       id="path6588" />
    <path
       style="color:#000000;fill:#ffffff;stroke-dasharray:0.529167, 0.529167;-inkscape-stroke:none"
       d="M 8.5644531,1.8710937 8.3691406,2.3632813 8.7460938,2.5136719 8.9433594,2.0214844 Z M 9.4355469,2.21875 9.2382813,2.7109375 9.7304688,2.90625 9.9257813,2.4160156 Z m 0.9824221,0.3925781 -0.197266,0.4921875 0.492188,0.1972657 0.195312,-0.4921875 z m 0.982422,0.3945313 -0.197266,0.4902344 0.492188,0.1972656 0.195312,-0.4921875 z m 0.982422,0.3925781 -0.197266,0.4902344 0.492187,0.1972656 0.195313,-0.4921875 z m 0.982421,0.3925781 -0.197265,0.4921875 0.492187,0.1953125 0.197266,-0.4902343 z"
       id="path6590" />
    <path
       style="color:#000000;fill:#ffffff;stroke-linejoin:bevel;-inkscape-stroke:none;paint-order:markers fill stroke"
       d="m 3.0839844,6.0390625 c -0.4352418,0 -0.7929688,0.357727 -0.7929688,0.7929687 0,0.4352418 0.357727,0.7929688 0.7929688,0.7929688 0.4352417,0 0.7949219,-0.357727 0.7949219,-0.7929688 0,-0.4352417 -0.3596802,-0.7929687 -0.7949219,-0.7929687 z m 0,0.5292969 c 0.149259,0 0.265625,0.1144129 0.265625,0.2636718 0,0.149259 -0.116366,0.2636719 -0.265625,0.2636719 -0.149259,0 -0.2636719,-0.1144129 -0.2636719,-0.2636719 0,-0.1492589 0.1144129,-0.2636718 0.2636719,-0.2636718 z"
       id="path6694" />
    <path
       style="color:#000000;fill:#ffffff;stroke-linejoin:bevel;-inkscape-stroke:none;paint-order:markers fill stroke"
       d="m 3.1191406,13.929688 c -0.4352417,0 -0.7949218,0.357726 -0.7949218,0.792968 0,0.435242 0.3596801,0.794922 0.7949218,0.794922 0.4352418,0 0.7929688,-0.35968 0.7929688,-0.794922 0,-0.435242 -0.357727,-0.792969 -0.7929688,-0.792968 z m 0,0.529296 c 0.149259,0 0.2636719,0.114413 0.2636719,0.263672 0,0.149259 -0.1144129,0.265625 -0.2636719,0.265625 -0.149259,0 -0.265625,-0.116366 -0.265625,-0.265625 0,-0.149259 0.116366,-0.263672 0.265625,-0.263672 z"
       id="circle6820" />
    <path
       style="color:#000000;fill:#ffffff;stroke-linejoin:bevel;-inkscape-stroke:none;paint-order:markers fill stroke"
       d="m 14.304688,3.7265625 c -0.435242,0 -0.792969,0.357727 -0.792969,0.7929687 0,0.4352418 0.357727,0.7949219 0.792969,0.7949219 0.435241,0 0.794921,-0.3596801 0.794921,-0.7949219 0,-0.4352417 -0.35968,-0.7929687 -0.794921,-0.7929687 z m 0,0.5292969 c 0.149258,0 0.265624,0.1144129 0.265625,0.2636718 0,0.149259 -0.116367,0.2656251 -0.265625,0.265625 -0.149259,0 -0.263672,-0.116366 -0.263672,-0.265625 0,-0.1492589 0.114413,-0.2636718 0.263672,-0.2636718 z"
       id="circle6822" />
    <path
       style="color:#000000;fill:#ffffff;stroke-linejoin:bevel;-inkscape-stroke:none;paint-order:markers fill stroke"
       d="m 8.125,1.1992187 c -0.4352418,0 -0.7949219,0.3596802 -0.7949219,0.7949219 0,0.4352418 0.3596801,0.7929688 0.7949219,0.7929688 0.4352418,0 0.7929688,-0.357727 0.7929688,-0.7929688 0,-0.4352417 -0.357727,-0.7949218 -0.7929688,-0.7949219 z m 0,0.5292969 c 0.149259,0 0.2636719,0.116366 0.2636719,0.265625 0,0.149259 -0.1144129,0.2636719 -0.2636719,0.2636719 -0.149259,0 -0.265625,-0.1144129 -0.265625,-0.2636719 0,-0.149259 0.116366,-0.265625 0.265625,-0.265625 z"
       id="circle6824" />
  </g>
</svg>
